<?xml version="1.0" standalone="no"?><!DOCTYPE svg PUBLIC "-//W3C//DTD SVG 1.1//EN" "http://www.w3.org/Graphics/SVG/1.1/DTD/svg11.dtd"><svg t="1480694126375" class="icon" style="" viewBox="0 0 1024 1024" version="1.1" xmlns="http://www.w3.org/2000/svg" p-id="1498" xmlns:xlink="http://www.w3.org/1999/xlink" width="200" height="200"><defs><style type="text/css"></style></defs><path d="M880.6 907.2c-3.1 3.6-7 6.2-11.2 7.9l0 0-0.1 0 0 0c-6 2.6-12.3 3.9-18.7 3.9-6.7 0-13.5-1.4-20.2-4.3-6.7-2.9-13.3-7.2-19.7-13-12.8-11.6-24.9-28.9-35.6-52.6-3.7-8.1-9.2-15-16.2-20.9-7-5.9-15.5-10.8-24.8-14.9-18.7-8.2-40.6-12.9-60.5-16.1-13.2-2.1-25.5-3.6-35.4-4.9-5.6-0.8-10.5-1.5-14.4-2.4-2.1-0.5-3.9-1-5.5-1.6-4.4-1.8-8.5-4-12.1-6.8-3.5-2.7-6.4-6-8.2-10-1.2-2.6-1.9-5.6-1.9-8.6 0-2.5 0.4-5 1.3-7.6 0.9-2.5 2.2-5.1 3.9-7.6 3.5-5.1 8.6-10.2 15.8-15.6l0.1-0.1c23-16 38.6-35.8 49.2-54.1 10.6-18.3 16-35.1 18.5-44.9 1.8-7 6.2-13.1 12.2-17.1 5.3-3.6 12.7-9.1 19.9-16.7 7.3-7.6 14.4-17.1 19.3-28.5 3.3-7.6 5.6-16.1 6.3-25.4 0.2-2.3 0.3-4.4 0.3-6.4 0-8.8-1.6-15.1-4-19.7-2.4-4.6-5.5-7.5-8.9-9.6-2.3-1.4-4.8-2.4-7.2-3.2-3.3-1-6.5-1.5-9.2-1.8-1.6-0.2-2.9-0.3-4.2-0.5-0.7-0.1-1.3-0.2-2.1-0.4-0.4-0.1-0.8-0.2-1.3-0.5-0.5-0.3-1.2-0.6-1.9-1.4-0.4-0.4-0.7-0.9-1-1.6-0.3-0.6-0.4-1.4-0.4-2.1 0-0.3 0-0.6 0.1-0.8l0 0c2.8-18.6 4-35.8 4-51.6 0-23.4-2.8-43.8-7.6-61.7-4.9-17.9-11.8-33.3-20.2-46.6-16.8-26.5-39.6-44.5-63.4-56.7-15.9-8.1-32.2-13.7-47.5-17.3-20.4-4.9-38.9-6.4-51.7-6.4-14.5 0-36.1 1.9-59.5 8.4-23.4 6.4-48.6 17.4-70.5 35.3-14.6 11.9-27.8 27-38.1 45.9C334.7 371.7 326 404 326 445.5c0 15.8 1.3 33 4 51.6l0 0c0 0.3 0.1 0.5 0.1 0.8 0 0.6-0.1 1.2-0.3 1.7-0.2 0.5-0.5 1-0.7 1.4-0.6 0.8-1.2 1.3-1.7 1.6-0.3 0.2-0.6 0.3-0.9 0.5-0.4 0.1-0.7 0.2-1 0.3-0.4 0.1-0.8 0.2-1.1 0.3-0.5 0.1-0.9 0.2-1.4 0.2-0.7 0.1-1.3 0.2-2.1 0.2-1 0.1-2 0.2-3.1 0.4-4.4 0.6-9.9 1.8-14.6 4.6-3.2 1.9-6 4.5-8.3 8.3-1.3 2.2-2.5 4.8-3.3 8-1 3.6-1.6 8-1.6 13.3 0 2 0.1 4.1 0.3 6.4 0.8 9.4 3.1 17.8 6.3 25.4 3.3 7.6 7.5 14.4 12.2 20.3 9.2 11.8 20 20.2 27 24.9 6 4 10.4 10.1 12.2 17.1 2.5 9.8 8 26.6 18.5 44.9 10.6 18.3 26.2 38.1 49.2 54.1l0.1 0.1c5.4 4 9.6 7.9 12.9 11.8 3.3 3.8 5.5 7.7 6.9 11.5 0.9 2.5 1.3 5.1 1.3 7.6 0 3.1-0.7 6-1.9 8.6-1.2 2.6-2.9 5-5 7.1-4.1 4.2-9.4 7.3-15.3 9.7-2.1 0.9-4.6 1.5-7.6 2.1-2.9 0.6-6.3 1.1-10.1 1.7-7.6 1.1-16.8 2.2-26.9 3.6-20.2 2.9-43.8 7.1-64.5 15-13.8 5.3-26.1 12.1-35.3 21.1-5.3 5.1-9.5 10.9-12.4 17.4-10.8 23.8-24.3 41.3-38.7 52.8-14.4 11.5-29.8 17.1-44 17.2-6.9 0-13.5-1.3-19.5-3.9l0 0-0.2-0.1 0 0c-4.2-1.7-8-4.4-11.1-7.9C70.1 822 25 710.8 25 589.1c0-133.9 54.6-255.3 142.8-343C256 158.3 377.9 104 512.5 104c134.6 0 256.5 54.3 344.7 142.1 88.2 87.8 142.8 209.1 142.8 343C1000 710.8 954.9 822 880.6 907.2zM850.1 253.2C763.7 167.2 644.4 114 512.5 114c-131.9 0-251.2 53.2-337.6 139.2C88.4 339.2 35 457.9 35 589.1c0 119.2 44.1 228.1 117 311.5 2 2.3 4.5 4 7.4 5.2l0 0 0.2 0.1 0 0c4.7 2 10 3.1 15.6 3.1 11.6 0 24.8-4.6 37.8-15 13-10.3 25.6-26.4 35.8-49.1 4.4-9.7 11-17.7 18.9-24.4 8-6.7 17.3-12 27.3-16.4 20-8.7 42.6-13.6 62.9-16.9 13.5-2.2 25.9-3.6 35.6-5 5.5-0.8 10.2-1.5 13.5-2.3 1.8-0.4 3.2-0.8 4-1.2 3.8-1.5 7.1-3.4 9.6-5.4 2.6-2 4.4-4.2 5.3-6.3 0.7-1.4 1-2.9 1-4.5 0-1.3-0.2-2.7-0.8-4.3-0.6-1.6-1.4-3.4-2.8-5.3-2.6-3.9-7-8.3-13.5-13.2-24.4-16.9-40.9-37.9-52-57.2-11.1-19.3-16.8-37-19.5-47.4-1.2-4.6-4.1-8.6-8.1-11.3-5.7-3.9-13.7-9.9-21.5-18.1-7.9-8.2-15.7-18.7-21.3-31.5-3.7-8.5-6.3-18.1-7.1-28.6-0.2-2.5-0.3-4.9-0.3-7.2 0-10.1 1.9-18 5.1-24.3 3.2-6.2 7.8-10.6 12.5-13.6 3.2-2 6.4-3.3 9.5-4.2 4.1-1.3 8-1.8 10.9-2.2 0.5-0.1 1-0.1 1.5-0.2-2.4-17.4-3.5-33.6-3.5-48.7 0-24.1 2.9-45.5 8-64.3 5.1-18.8 12.5-35.2 21.4-49.3 17.9-28.2 42.2-47.4 67.3-60.3 16.7-8.6 33.8-14.3 49.7-18.1 21.3-5.1 40.4-6.6 54.1-6.6 15.3 0 37.7 2 62.1 8.7 24.4 6.7 50.9 18.2 74.1 37.2 15.5 12.7 29.6 28.7 40.5 48.9 14.6 26.9 23.7 61 23.7 103.9 0 15.1-1.1 31.3-3.5 48.7 0.9 0.1 2 0.2 3.2 0.4 5 0.7 11.8 2 18.4 5.9 4.4 2.6 8.6 6.4 11.8 11.7 1.8 3 3.3 6.5 4.4 10.6 1.2 4.6 1.9 9.8 1.9 15.8 0 2.3-0.1 4.7-0.3 7.2-0.8 10.5-3.5 20.1-7.1 28.6-3.7 8.5-8.4 16-13.5 22.5-10.2 13-21.7 21.9-29.3 27.1-4 2.7-6.9 6.7-8.1 11.3-2.7 10.4-8.4 28-19.5 47.4-11.1 19.3-27.7 40.2-52 57.2-4.9 3.7-8.6 7.1-11.2 10.2-2.6 3.1-4.2 5.9-5.1 8.3-0.6 1.6-0.8 3-0.8 4.3 0 1.6 0.3 3 1 4.5 0.7 1.4 1.7 2.9 3 4.3 2.7 2.8 6.9 5.4 11.9 7.4 1.1 0.5 3.2 1 5.8 1.5 2.6 0.5 5.9 1 9.6 1.6 7.4 1.1 16.7 2.2 26.9 3.6 20.4 2.9 44.7 7.2 66.6 15.6 14.6 5.6 28.2 13 38.7 23.2 6 5.9 11.1 12.7 14.6 20.5 7.7 17.1 16.1 30.5 24.6 40.4 8.5 10 17.2 16.5 25.6 20.1 5.6 2.4 11 3.5 16.2 3.5 5.1 0 10-1 14.8-3.1l0 0 0.1 0 0 0c3-1.3 5.6-3 7.5-5.3 72.9-83.4 117-192.3 117-311.5C990 457.9 936.6 339.2 850.1 253.2zM447.6 655.2c2.5-1.1 5.5 0.1 6.6 2.7 4.8 11.3 12.8 21 22.9 27.8 10.1 6.8 22.2 10.8 35.3 10.8 13.2 0 25.4-4 35.5-10.9 10.1-6.9 18.1-16.6 22.9-28.1l0 0c1.1-2.5 4-3.8 6.5-2.7 2.6 1.1 3.8 4 2.7 6.5-5.5 13.3-14.8 24.5-26.5 32.5-11.7 8-25.9 12.6-41.1 12.6-15.1 0-29.2-4.6-40.9-12.5-11.7-7.9-20.9-19-26.5-32.2C443.9 659.2 445.1 656.3 447.6 655.2z" p-id="1499" fill="#475669"></path></svg>